<svg width="1600" height="900" viewBox="0 0 1600 900" fill="none" xmlns="http://www.w3.org/2000/svg">
  <defs>
    <linearGradient id="bg" x1="160" y1="40" x2="1440" y2="860" gradientUnits="userSpaceOnUse">
      <stop stop-color="#E0F2FE"/>
      <stop offset="0.42" stop-color="#DDD6FE"/>
      <stop offset="1" stop-color="#D1FAE5"/>
    </linearGradient>
    <linearGradient id="panel" x1="0" y1="0" x2="0" y2="1">
      <stop stop-color="#FFFFFF" stop-opacity="0.95"/>
      <stop offset="1" stop-color="#F0FDF4" stop-opacity="0.92"/>
    </linearGradient>
    <linearGradient id="screen" x1="0" y1="0" x2="1" y2="1">
      <stop stop-color="#1E293B"/>
      <stop offset="1" stop-color="#334155"/>
    </linearGradient>
    <filter id="soft" x="0" y="0" width="1600" height="900" filterUnits="userSpaceOnUse" color-interpolation-filters="sRGB">
      <feDropShadow dx="0" dy="24" stdDeviation="30" flood-color="#64748B" flood-opacity="0.18"/>
    </filter>
  </defs>

  <rect width="1600" height="900" rx="0" fill="url(#bg)"/>

  <circle cx="1320" cy="110" r="86" fill="#6EE7B7" fill-opacity="0.35"/>
  <circle cx="146" cy="150" r="70" fill="#93C5FD" fill-opacity="0.35"/>
  <circle cx="1380" cy="760" r="100" fill="#C4B5FD" fill-opacity="0.28"/>

  <g filter="url(#soft)">
    <rect x="110" y="120" width="1380" height="660" rx="36" fill="url(#panel)"/>
  </g>

  <g transform="translate(180,190)">
    <rect x="0" y="0" width="660" height="390" rx="28" fill="url(#screen)"/>
    <rect x="28" y="28" width="604" height="334" rx="18" fill="#0F172A"/>
    <rect x="58" y="70" width="200" height="26" rx="13" fill="#6EE7B7" fill-opacity="0.95"/>
    <rect x="278" y="70" width="120" height="26" rx="13" fill="#38BDF8" fill-opacity="0.85"/>
    <rect x="58" y="118" width="320" height="18" rx="9" fill="#FCA5A5" fill-opacity="0.85"/>
    <rect x="58" y="154" width="260" height="18" rx="9" fill="#FDE68A" fill-opacity="0.8"/>
    <rect x="58" y="190" width="380" height="18" rx="9" fill="#C4B5FD" fill-opacity="0.8"/>
    <rect x="58" y="236" width="230" height="16" rx="8" fill="#E2E8F0" fill-opacity="0.9"/>
    <rect x="58" y="268" width="340" height="16" rx="8" fill="#E2E8F0" fill-opacity="0.82"/>
    <rect x="58" y="300" width="280" height="16" rx="8" fill="#E2E8F0" fill-opacity="0.72"/>
    <circle cx="584" cy="328" r="18" fill="#22C55E" fill-opacity="0.95"/>
    <path d="M240 390H420L466 456H194L240 390Z" fill="#CBD5E1"/>
    <rect x="138" y="456" width="384" height="18" rx="9" fill="#94A3B8"/>
  </g>

  <g transform="translate(940,220)">
    <rect x="0" y="0" width="420" height="320" rx="24" fill="#FFFFFF" fill-opacity="0.7"/>
    <circle cx="60" cy="60" r="32" fill="#CC342D" fill-opacity="0.85"/>
    <text x="60" y="68" text-anchor="middle" fill="#FFF" font-family="monospace" font-size="22" font-weight="700">Rb</text>
    <circle cx="160" cy="60" r="32" fill="#3776AB" fill-opacity="0.85"/>
    <text x="160" y="68" text-anchor="middle" fill="#FFF" font-family="monospace" font-size="22" font-weight="700">Py</text>
    <circle cx="260" cy="60" r="32" fill="#339933" fill-opacity="0.85"/>
    <text x="260" y="68" text-anchor="middle" fill="#FFF" font-family="monospace" font-size="22" font-weight="700">Js</text>
    <circle cx="360" cy="60" r="32" fill="#00ADD8" fill-opacity="0.85"/>
    <text x="360" y="68" text-anchor="middle" fill="#FFF" font-family="monospace" font-size="22" font-weight="700">Go</text>
    <circle cx="110" cy="160" r="32" fill="#ED8B00" fill-opacity="0.85"/>
    <text x="110" y="168" text-anchor="middle" fill="#FFF" font-family="monospace" font-size="20" font-weight="700">Java</text>
    <circle cx="210" cy="160" r="32" fill="#9B4DCA" fill-opacity="0.85"/>
    <text x="210" y="168" text-anchor="middle" fill="#FFF" font-family="monospace" font-size="18" font-weight="700">asdf</text>
    <rect x="30" y="220" width="360" height="16" rx="8" fill="#94A3B8" fill-opacity="0.4"/>
    <rect x="30" y="250" width="280" height="16" rx="8" fill="#94A3B8" fill-opacity="0.3"/>
    <rect x="30" y="280" width="320" height="16" rx="8" fill="#94A3B8" fill-opacity="0.2"/>
  </g>

  <g transform="translate(1030,620)">
    <path d="M0 38C18 0 56 -6 74 24C86 2 122 0 134 28C144 52 130 80 96 104C56 84 18 68 0 38Z" fill="#6EE7B7"/>
    <path d="M140 20C152 -2 182 -2 194 20C202 34 198 56 176 76C150 62 134 42 140 20Z" fill="#C4B5FD"/>
    <path d="M218 36C234 6 270 4 286 30C294 48 288 72 262 94C232 78 212 56 218 36Z" fill="#93C5FD"/>
  </g>

  <text x="130" y="126" fill="#2D6A4F" font-family="Avenir, Helvetica, Arial, sans-serif" font-size="66" font-weight="800">asdf Version Manager</text>
  <text x="132" y="186" fill="#5B7A6F" font-family="Avenir, Helvetica, Arial, sans-serif" font-size="28">One tool to manage Ruby, Python, Node.js, Go, Java and more.</text>
</svg>
