<svg width="1600" height="900" viewBox="0 0 1600 900" fill="none" xmlns="http://www.w3.org/2000/svg">
  <defs>
    <linearGradient id="bg" x1="160" y1="40" x2="1440" y2="860" gradientUnits="userSpaceOnUse">
      <stop stop-color="#E0E7FF"/>
      <stop offset="0.5" stop-color="#DBEAFE"/>
      <stop offset="1" stop-color="#E0F2FE"/>
    </linearGradient>
    <linearGradient id="panel" x1="0" y1="0" x2="0" y2="1">
      <stop stop-color="#FFFFFF" stop-opacity="0.95"/>
      <stop offset="1" stop-color="#EFF6FF" stop-opacity="0.92"/>
    </linearGradient>
    <linearGradient id="screen" x1="0" y1="0" x2="1" y2="1">
      <stop stop-color="#1E293B"/>
      <stop offset="1" stop-color="#334155"/>
    </linearGradient>
    <filter id="soft" x="0" y="0" width="1600" height="900" filterUnits="userSpaceOnUse" color-interpolation-filters="sRGB">
      <feDropShadow dx="0" dy="24" stdDeviation="30" flood-color="#64748B" flood-opacity="0.18"/>
    </filter>
  </defs>

  <rect width="1600" height="900" fill="url(#bg)"/>

  <circle cx="1340" cy="100" r="80" fill="#818CF8" fill-opacity="0.25"/>
  <circle cx="140" cy="160" r="65" fill="#93C5FD" fill-opacity="0.3"/>
  <circle cx="1400" cy="780" r="90" fill="#A5B4FC" fill-opacity="0.2"/>

  <g filter="url(#soft)">
    <rect x="110" y="120" width="1380" height="660" rx="36" fill="url(#panel)"/>
  </g>

  <g transform="translate(180,200)">
    <rect x="0" y="0" width="660" height="380" rx="28" fill="url(#screen)"/>
    <rect x="28" y="28" width="604" height="324" rx="18" fill="#0F172A"/>

    <text x="58" y="72" fill="#6EE7B7" font-family="monospace" font-size="16" fill-opacity="0.95">$</text>
    <text x="78" y="72" fill="#E2E8F0" font-family="monospace" font-size="16"> launchctl list</text>
    <rect x="58" y="88" width="400" height="14" rx="7" fill="#94A3B8" fill-opacity="0.3"/>
    <rect x="58" y="110" width="340" height="14" rx="7" fill="#94A3B8" fill-opacity="0.25"/>
    <rect x="58" y="132" width="380" height="14" rx="7" fill="#94A3B8" fill-opacity="0.2"/>

    <text x="58" y="174" fill="#6EE7B7" font-family="monospace" font-size="16" fill-opacity="0.95">$</text>
    <text x="78" y="174" fill="#E2E8F0" font-family="monospace" font-size="16"> launchctl bootstrap gui/501 ~/LaunchAgents/...</text>

    <text x="58" y="214" fill="#38BDF8" font-family="monospace" font-size="15">Bootstrap successful</text>

    <text x="58" y="254" fill="#6EE7B7" font-family="monospace" font-size="16" fill-opacity="0.95">$</text>
    <text x="78" y="254" fill="#E2E8F0" font-family="monospace" font-size="16"> launchctl kickstart gui/501/com.example.svc</text>

    <rect x="58" y="280" width="300" height="14" rx="7" fill="#FDE68A" fill-opacity="0.5"/>
    <rect x="58" y="302" width="260" height="14" rx="7" fill="#FDE68A" fill-opacity="0.35"/>

    <circle cx="584" cy="318" r="16" fill="#22C55E" fill-opacity="0.9"/>
  </g>

  <g transform="translate(940,220)">
    <rect x="0" y="0" width="420" height="340" rx="24" fill="#FFFFFF" fill-opacity="0.7"/>

    <rect x="30" y="30" width="360" height="60" rx="12" fill="#4F46E5" fill-opacity="0.1"/>
    <text x="210" y="68" text-anchor="middle" fill="#4F46E5" font-family="monospace" font-size="22" font-weight="700">launchd (PID 1)</text>

    <line x1="210" y1="90" x2="120" y2="130" stroke="#94A3B8" stroke-width="2"/>
    <line x1="210" y1="90" x2="300" y2="130" stroke="#94A3B8" stroke-width="2"/>

    <rect x="40" y="130" width="160" height="44" rx="10" fill="#3B82F6" fill-opacity="0.15"/>
    <text x="120" y="158" text-anchor="middle" fill="#3B82F6" font-family="monospace" font-size="15" font-weight="600">LaunchAgents</text>

    <rect x="220" y="130" width="160" height="44" rx="10" fill="#8B5CF6" fill-opacity="0.15"/>
    <text x="300" y="158" text-anchor="middle" fill="#8B5CF6" font-family="monospace" font-size="15" font-weight="600">LaunchDaemons</text>

    <line x1="120" y1="174" x2="120" y2="210" stroke="#94A3B8" stroke-width="1.5"/>
    <line x1="300" y1="174" x2="300" y2="210" stroke="#94A3B8" stroke-width="1.5"/>

    <rect x="50" y="210" width="140" height="32" rx="8" fill="#6EE7B7" fill-opacity="0.3"/>
    <text x="120" y="232" text-anchor="middle" fill="#065F46" font-family="monospace" font-size="13">User Services</text>

    <rect x="230" y="210" width="140" height="32" rx="8" fill="#C4B5FD" fill-opacity="0.3"/>
    <text x="300" y="232" text-anchor="middle" fill="#5B21B6" font-family="monospace" font-size="13">System Services</text>

    <rect x="30" y="270" width="360" height="16" rx="8" fill="#94A3B8" fill-opacity="0.2"/>
    <rect x="30" y="296" width="280" height="16" rx="8" fill="#94A3B8" fill-opacity="0.15"/>
  </g>

  <text x="800" y="840" text-anchor="middle" fill="#6366F1" font-family="Avenir, Helvetica, Arial, sans-serif" font-size="22">macOS 系统服务管理的核心工具</text>
</svg>
