<svg width="250" height="150" viewBox="0 0 250 150" fill="none" xmlns="http://www.w3.org/2000/svg">
  <rect width="250" height="150" rx="16" fill="#E3F2FD"/>
  <!-- Desk with monitor -->
  <rect x="70" y="50" width="110" height="70" rx="6" fill="#1E293B"/>
  <rect x="76" y="56" width="98" height="52" rx="3" fill="#0F172A"/>
  <!-- Code lines on screen -->
  <rect x="84" y="64" width="40" height="4" rx="2" fill="#6EE7B7"/>
  <rect x="84" y="74" width="60" height="4" rx="2" fill="#93C5FD"/>
  <rect x="84" y="84" width="50" height="4" rx="2" fill="#FDE68A"/>
  <rect x="84" y="94" width="35" height="4" rx="2" fill="#F9A8D4"/>
  <!-- Monitor stand -->
  <rect x="115" y="120" width="20" height="10" fill="#64748B"/>
  <rect x="105" y="128" width="40" height="5" rx="2" fill="#64748B"/>
  <!-- Coffee mug -->
  <circle cx="200" cy="118" r="12" fill="#FFAB91"/>
  <rect x="192" y="110" width="16" height="18" rx="4" fill="#FF7043"/>
  <path d="M208 114 Q216 116 216 122 Q216 128 208 128" stroke="#FF7043" stroke-width="2.5" fill="none"/>
  <!-- Steam -->
  <path d="M196 106 Q198 100 200 106" stroke="#90CAF9" stroke-width="1.5" fill="none" opacity="0.5"/>
  <path d="M202 104 Q204 98 206 104" stroke="#90CAF9" stroke-width="1.5" fill="none" opacity="0.4"/>
  <!-- Plant -->
  <rect x="35" y="100" width="16" height="20" rx="4" fill="#A5D6A7"/>
  <circle cx="43" cy="92" r="14" fill="#66BB6A" opacity="0.7"/>
  <circle cx="38" cy="88" r="10" fill="#81C784" opacity="0.6"/>
  <!-- Stars/sparkles -->
  <circle cx="30" cy="30" r="3" fill="#FFF59D" opacity="0.6"/>
  <circle cx="220" cy="25" r="2.5" fill="#FFF59D" opacity="0.5"/>
  <circle cx="180" cy="40" r="2" fill="#FFF59D" opacity="0.4"/>
</svg>
